<svg xmlns="http://www.w3.org/2000/svg" data-name="Layer 1" viewBox="0 0 100 125"><path d="M57.68 70.22h-.3l-.53.06c.16-.13.33-.26.47-.4A8.5 8.5 0 0 0 59.17 67a.36.36 0 0 0-.62-.35 9.2 9.2 0 0 1-2.21 2.57 6 6 0 0 1-1 .5 3.5 3.5 0 0 1 .57-1 8.5 8.5 0 0 1 1.87-1.39.37.37 0 0 0-.27-.67l-.36.07A8.2 8.2 0 0 0 58.66 65a14 14 0 0 0 1.68-5c.36-2.21.53-5 .69-7.82a.36.36 0 0 0-.24-.37.36.36 0 0 0-.42.13c-.24.34-.47.65-.7.94a5.2 5.2 0 0 0 .06-1.88.36.36 0 0 0-.31-.33.38.38 0 0 0-.39.23 5.8 5.8 0 0 1-1.18 2.1 14.6 14.6 0 0 1-2.68 2 21 21 0 0 1-2 1.11v-.64a12 12 0 0 0 4.46-3.35 12.9 12.9 0 0 0 2.25-5.62 3.43 3.43 0 0 0-.38-2.1 1.5 1.5 0 0 1-.14-.32 1.6 1.6 0 0 1 .06-.75A10 10 0 0 0 59.6 42a19.6 19.6 0 0 0-.41-4.58c-.1-.44-.21-.86-.32-1.28s-.23-.91-.34-1.43a19 19 0 0 1-.37-2.48c-.1-1.13-.15-2.55-.2-4s-.1-2.86-.2-4c0-.24 0-.46-.07-.68a19 19 0 0 0-.43-2.19 19 19 0 0 1-.44-2.23c-.06-.49-.11-1.06-.13-1.76s0-1.59 0-2.54 0-2.29-.06-3.49a18 18 0 0 0-1-6.22 4.06 4.06 0 0 0-1.39-1.7c-1.76-1.15-4-.12-5.72 2.44s-2.94 7-3.81 10.12c-.27 1-.51 1.82-.71 2.45-.53 1.63-.84 1.79-1 1.89a.93.93 0 0 0-.39.53.8.8 0 0 0-.06.22 10.7 10.7 0 0 0 1.09 6.39c1.31 2.35 3.93 4.09 6.46 5.75v.64a31 31 0 0 1-5.34-4 17.2 17.2 0 0 1-3-4.82.38.38 0 0 0-.39-.2.37.37 0 0 0-.31.32 20 20 0 0 0-.26 3.93 15.2 15.2 0 0 0 .81 3.46 70 70 0 0 0-.16 10.53 10.74 10.74 0 0 0 3 6.8 31.8 31.8 0 0 0 6.61 4.66.4.4 0 0 0 .15.05v.75a39 39 0 0 1-5.71-3.41 13.9 13.9 0 0 1-3.17-3.64.37.37 0 0 0-.63.38 21.9 21.9 0 0 0 3.51 5.16 23 23 0 0 0 3.16 2.48c.52.36 1 .68 1.36 1a6 6 0 0 1 .8.75 12 12 0 0 0-1.59-1.12c-.84-.5-1.9-1-3-1.54S44 54.41 43.14 54a17.8 17.8 0 0 1-3.56-2.74.35.35 0 0 0-.44-.05.37.37 0 0 0-.16.41 14.7 14.7 0 0 0 1.51 4 9.6 9.6 0 0 0 3 2.77c.83.55 1.77 1.1 2.73 1.65a2 2 0 0 1-.35-.09A12.5 12.5 0 0 1 42.11 58a8.3 8.3 0 0 1-1.84-2.12c-.2-.33-.4-.65-.61-1a.37.37 0 0 0-.63.38c.2.33.4.66.62 1 .63 1 1.26 2.08 1.9 3.32q.18.35.36.72t.39.78a16.7 16.7 0 0 0 2.67 4 30 30 0 0 0 5.54 4.25l-1.07-.06c-.72 0-1.4-.11-2-.2a10 10 0 0 1-2.52-.62 5.1 5.1 0 0 1-1.68-1.12 11.7 11.7 0 0 1-1.65-2.26.37.37 0 0 0-.3-.15c-.29.07-.4.23-.34.48.86 1.8 1.38 3 1.56 3.53a7 7 0 0 1 .28.92 11 11 0 0 0 .43 2.15 3.2 3.2 0 0 0 .78 1.12 4.53 4.53 0 0 0 2.17 1.17 8 8 0 0 0 1.17.23c.2 0 1.23.16 3.08.32a4.2 4.2 0 0 1 .81.17.4.4 0 0 1 .17.1v.56a8.4 8.4 0 0 0-1.83-.46c-.33 0-.7-.06-1.06-.09s-.77-.05-1.13-.1a5 5 0 0 1-.62-.1 6.5 6.5 0 0 1-2.06-1 .35.35 0 0 0-.44.53 6.56 6.56 0 0 0 2.37 1.89 10.3 10.3 0 0 0 1.94.51c.44.08.83.16 1.15.25a3 3 0 0 1 1.44 1c-.24 2.19-.53 4.25-.78 6.09-.12.85-.24 1.66-.33 2.42a57 57 0 0 0-.63 7.7 6.3 6.3 0 0 0 .35 2.43.4.4 0 0 0 .18.2.5.5 0 0 0 .16 0 .4.4 0 0 0 .18 0 2.42 2.42 0 0 0 1.28-1.26A10 10 0 0 0 52 93l1.47-18.77-.1 1.37a7.4 7.4 0 0 1 2.18-2.43 4.94 4.94 0 0 1 2.19-.87h.11a.82.82 0 0 1 .66.24c.5.57.34 2.49-.45 3.73s-1.9 1.5-3.24 1.91a.37.37 0 0 0-.26.43.37.37 0 0 0 .36.29 5.4 5.4 0 0 0 3.87-1.63C60 76 61 73.53 60.63 72c-.34-1.32-1.71-1.78-2.95-1.78m-2.36.32c-.58.38-1.22.76-1.87 1.14v-.56c.62-.12 1.26-.35 1.87-.58m.24-14.9a14.5 14.5 0 0 0 2.83-2.19 6 6 0 0 0 .56-.72 5.2 5.2 0 0 1-1.06 1.56.38.38 0 0 0 0 .48.36.36 0 0 0 .46.08 7.3 7.3 0 0 0 1.4-1 6 6 0 0 0 .48-.54c-.15 2.38-.31 4.67-.62 6.53A13 13 0 0 1 58 64.65a9.8 9.8 0 0 1-2.36 2.47.37.37 0 0 0-.1.44.35.35 0 0 0 .37.2 4.3 4.3 0 0 0-.53.51 5 5 0 0 0-.92 1.8c-.34.11-.7.21-1.07.31l-.06-4.1c0-1.16 0-2.32-.15-9.34a24 24 0 0 0 2.38-1.3M44.22 27.12a10 10 0 0 1-1-5.88 1 1 0 0 1 0-.14c0-.1 0-.1.13-.16.31-.23.68-.56 1.24-2.26.21-.65.45-1.51.72-2.48.88-3.14 2.09-7.42 3.72-9.92s3.48-3 4.7-2.23a3.35 3.35 0 0 1 1.12 1.4 17.6 17.6 0 0 1 1 5.94c0 1.18 0 2.37.06 3.47v2.56c0 .74.08 1.31.14 1.82a19 19 0 0 0 .45 2.31 17 17 0 0 1 .5 2.11c0 .21 0 .43.07.66.1 1.13.15 2.55.2 4s.1 2.86.2 4a21 21 0 0 0 .38 2.57c.11.54.24 1 .35 1.46s.22.82.31 1.24a19.2 19.2 0 0 1 .4 4.39 9 9 0 0 1-.16 1.23 2.4 2.4 0 0 0-.06 1.07 2.3 2.3 0 0 0 .2.47 2.58 2.58 0 0 1 .3 1.7 12.2 12.2 0 0 1-2.09 5.25 10.8 10.8 0 0 1-3.89 3c-.14-8.43-.38-23-.41-31.81 0-9.16.15-12.19.34-15.21a.37.37 0 0 0-.32-.39h-.05a.36.36 0 0 0-.36.3c-.37 2.07-.74 4.14-1.23 8.69-.43 4-1 10.06-1.08 16.11-2.47-1.63-4.74-3.21-5.88-5.27m.61 22.25A10 10 0 0 1 42.09 43a68 68 0 0 1 .17-10.48.3.3 0 0 0 0-.13 14.6 14.6 0 0 1-.8-3.36 14 14 0 0 1 .11-2.56 14.9 14.9 0 0 0 2.63 3.9 33.6 33.6 0 0 0 5.8 4.37c0 6 .43 11.81.85 17.4l.15 1.59a30 30 0 0 1-6.17-4.36m5.27 7.34c-.4-.31-.89-.65-1.4-1a22 22 0 0 1-3.06-2.4c-.27-.27-.51-.56-.75-.85h.07a44.4 44.4 0 0 0 6.22 3.7c0 .58.08 1.15.12 1.72a7 7 0 0 0-1.2-1.17m-7.14 4c-.14-.27-.27-.52-.39-.78l-.37-.73-.2-.43a13.9 13.9 0 0 0 3.71 1.82 4.13 4.13 0 0 0 2.15.19.35.35 0 0 0 .3-.29.36.36 0 0 0-.18-.39c-1.42-.81-2.83-1.61-4-2.4a8.9 8.9 0 0 1-2.79-2.55 10 10 0 0 1-1.06-2.52 16.5 16.5 0 0 0 2.73 2c.82.47 1.82 1 2.8 1.45s2.08 1 2.89 1.51a11.4 11.4 0 0 1 3 2.51c.19 3.13.3 6.18.27 9.14a33.4 33.4 0 0 1-6.19-4.65A16 16 0 0 1 43 60.75Zm7.73 13.4L48 73.88c-.69-.09-1.16-.17-1.42-.23a4.3 4.3 0 0 1-1.94-.89 2.55 2.55 0 0 1-.75-1.08 3 3 0 0 1-.14-.51 16 16 0 0 0-.32-1.64 12 12 0 0 0-.5-1.47 7.53 7.53 0 0 0 4.32 1.71 42 42 0 0 0 4.45.33c0 .62 0 1.24-.06 1.85 0 .81-.08 1.61-.14 2.4a3.6 3.6 0 0 0-.81-.2Zm-.78 2.32a13 13 0 0 0-1.23-.27 10 10 0 0 1-1.81-.47l-.25-.13c.21.05.43.08.65.11.39.05.79.08 1.17.1s.71 0 1 .09a8 8 0 0 1 1.86.48c0 .29-.06.59-.09.87a3.34 3.34 0 0 0-1.3-.74Zm1.37 16.47a10 10 0 0 1-.4 2.5 1.4 1.4 0 0 1-.58.68 7.3 7.3 0 0 1-.17-1.77 59 59 0 0 1 .62-7.6c.1-.75.21-1.56.33-2.41.34-2.43.73-5.26 1-8.27a2 2 0 0 0 .05-.46q.15-1.77.24-3.63a156 156 0 0 0-.61-17.92c0-.65-.1-1.31-.15-2-.42-5.65-.87-11.48-.85-17.5 0-6.74.63-13.73 1.11-18.26.07-.64.14-1.23.2-1.78 0 2.07-.07 4.72 0 8.31 0 9 .28 24 .41 32.34v.37c.14 8.26.16 9.49.17 10.72l.1 6v1.91Zm8-17.78a3.62 3.62 0 0 0-.21-3.12 1.56 1.56 0 0 0-1.21-.48h-.15a5.7 5.7 0 0 0-2.56 1 6.7 6.7 0 0 0-1.67 1.59V72.6a9 9 0 0 1 3.46-1.6 4 4 0 0 1 .49-.06h.27c1.11 0 2 .42 2.22 1.25a5 5 0 0 1-.59 2.97Z"/></svg>