<svg enable-background="new 0 0 100 100" fill="#fff" viewBox="0 0 100 125" xmlns="http://www.w3.org/2000/svg">
  <style>
    @keyframes elasticMove {
      0% { transform: scale(1); }
      50% { transform: scale(1.2); }
      100% { transform: scale(1); }
    }
    @keyframes counterElasticMove {
      0% { transform: scale(1); }
      50% { transform: scale(0.8); }
      100% { transform: scale(1); }
    }
    .junction {
      animation: elasticMove 2s infinite ease-in-out;
      transform-origin: center;
    }
    .counter-junction {
      animation: counterElasticMove 2s infinite ease-in-out;
      transform-origin: center;
    }
  </style>
  <g>
    <circle class="junction" cx="93.434" cy="47.216" r="1" />
    <circle class="junction" cx="78.125" cy="30.741" r="1" />
    <circle class="junction" cx="48.884" cy="21.31" r="1" />
    <circle class="junction" cx="23.447" cy="33.122" r="1" />
    <circle class="junction" cx="7.467" cy="52.96" r="1" />
    <circle class="junction" cx="13.783" cy="61.142" r="1" />
    <circle class="junction" cx="29.803" cy="80.856" r="1" />
    <circle class="junction" cx="56.826" cy="75.044" r="1" />
    <circle class="junction" cx="82.586" cy="77.215" r="1" />
    <circle class="junction" cx="92.984" cy="55.693" r="1" />
  </g>
  <g>
    <circle class="counter-junction" cx="83.434" cy="37.216" r="1" />
    <circle class="counter-junction" cx="68.125" cy="20.741" r="1" />
    <circle class="counter-junction" cx="38.884" cy="11.31" r="1" />
    <circle class="counter-junction" cx="13.447" cy="23.122" r="1" />
    <circle class="counter-junction" cx="7.467" cy="42.96" r="1" />
    <circle class="counter-junction" cx="23.783" cy="51.142" r="1" />
    <circle class="counter-junction" cx="39.803" cy="70.856" r="1" />
    <circle class="counter-junction" cx="66.826" cy="65.044" r="1" />
    <circle class="counter-junction" cx="72.586" cy="67.215" r="1" />
    <circle class="counter-junction" cx="82.984" cy="45.693" r="1" />
  </g>
  <path d="m93.434 47.216c0-.071-.029-.133-.074-.178l-15.235-16.297s0 0 0-.001c-.01-.01-.023-.007-.033-.016-.008-.005-.018-.006-.023-.01-.018-.012-.025-.033-.045-.04-.002 0-.002 0-.002 0-.002 0-.002-.002-.002-.002l-29.241-9.431c-.001 0-.003.001-.004 0-.024-.007-.05.007-.075.007-.002 0-.004 0-.006 0-.029.001-.057-.012-.085-.001-.003.001-.003.004-.006.006-.003.001-.005-.001-.008 0l-25.148 11.869c-.019.009-.023.03-.039.043-.016.012-.037.012-.05.027l-15.891 19.768c-.016.02-.011.045-.02.067-.012.027-.025.05-.026.08-.001.011-.007.019-.005.029.002.024.021.043.03.066.009.021.003.046.018.065l6.316 8.182c.001.001.002.001.003.001.001.002 0 .003.001.004l16.02 19.714c.005.007.016.004.021.01.021.022.044.034.072.048.013.006.018.021.032.025.022.007.046.01.068.01.018 0 .035-.002.053-.006l27.023-5.812 25.76 2.171c.006.001.014.001.02.001.033 0 .064-.006.096-.02.006-.002.006-.008.012-.011.016-.008.029-.017.043-.028s.021-.023.033-.037c.014-.016.031-.026.041-.046l.006-.013.002-.001 10.398-21.522c.004-.007 0-.014.002-.021.004-.009.012-.013.016-.022 0-.001-.002-.003-.002-.004.004-.012-.002-.022-.002-.034.002-.012.012-.018.012-.029zm-41.307-16.868 18.764 19.321-32.231 2.222zm-13.964 21.394-13.569-16.945 26.984-4.515zm14.536-21.524 24.896.931-6.254 18.266zm-27.105 3.906 22.979-12.291 3.164 7.917zm12.184 17.938-23.368 8.806 9.802-25.75zm33.22-1.9-13.977 24.59-18.333-22.362zm7.008-18.669 14.711 23.93-20.949-5.713zm14.996 23.441-13.545-22.037 13.479 14.42zm-40.746-25.234-3.125-7.817 27.009 8.711zm-28.006 4.574-.367-.805 15.909-7.508zm-.756-.453.345.756-9.777 10.979zm-.077 1.98-9.512 24.991-5.918-7.665zm14.395 16.782-7.923 27.898-15.497-19.071zm.485.119 18.308 22.332-26.253 5.646zm33.115-2.253 11.055 26.634-24.996-2.106zm11.459 26.308-11-26.501 21.033 5.736z"/>
</svg>